<?xml version="1.0" encoding="UTF-8"?>
<svg width="68px" height="65px" viewBox="0 0 68 65" version="1.1" xmlns="http://www.w3.org/2000/svg">
    <g stroke="none" stroke-width="1" fill="none" fill-rule="evenodd" transform="translate(-108.000000, -132.000000)">
        <g transform="translate(108.000000, 132.000000)">
            <path d="M37,0 L61,0 C64.8659932,-7.10171439e-16 68,3.13400675 68,7 L68,58 C68,61.8659932 64.8659932,65 61,65 L37,65 C33.1340068,65 30,61.8659932 30,58 L30,7 C30,3.13400675 33.1340068,7.10171439e-16 37,0 Z M45,5 C44.4477153,5 44,5.44771525 44,6 C44,6.55228475 44.4477153,7 45,7 L53,7 C53.5522847,7 54,6.55228475 54,6 C54,5.44771525 53.5522847,5 53,5 L45,5 Z M49,62 C50.6568542,62 52,60.6568542 52,59 C52,57.3431458 50.6568542,56 49,56 C47.3431458,56 46,57.3431458 46,59 C46,60.6568542 47.3431458,62 49,62 Z M34,11 C33.4477153,11 33,11.4477153 33,12 L33,52 C33,52.5522847 33.4477153,53 34,53 L64,53 C64.5522847,53 65,52.5522847 65,52 L65,12 C65,11.4477153 64.5522847,11 64,11 L34,11 Z"
                  id="Combined-Shape" fill="#FFFFFF"/>
            <path d="M27,27 L27,30 L12,30 C11.4477153,30 11,30.4477153 11,31 L11,61 C11,61.5522847 11.4477153,62 12,62 L27,62 L27,65 L7,65 C3.13400675,65 9.02074005e-16,61.8659932 4.2862638e-16,58 L1.89820254e-15,34 C1.42475491e-15,30.1340068 3.13400675,27 7,27 L27,27 Z M5,50 C5,50.5522847 5.44771525,51 6,51 C6.55228475,51 7,50.5522847 7,50 L7,42 C7,41.4477153 6.55228475,41 6,41 C5.44771525,41 5,41.4477153 5,42 L5,50 Z"
                  id="Combined-Shape" fill="#E1E1E1"/>
            <path d="M19.3370324,12.1614559 C14.1325657,12.2443081 9.93857354,16.5772601 9.93857354,21.9102476 L9.93857354,21.9754315 C9.93857354,22.5277163 9.49085829,22.9754315 8.93857354,22.9754315 L8,22.9754315 C7.44771525,22.9754315 7,22.5277163 7,21.9754315 L7,21.9102476 C7,14.9203831 12.509579,9.24424911 19.3370324,9.16117133 L19.3370324,7 C19.3370324,6.44771525 19.7847476,6 20.3370324,6 C20.5537194,6 20.7645437,6.07038325 20.9377729,6.20055591 L25.6089321,9.71068822 C26.0504528,10.042468 26.1394155,10.669352 25.8076356,11.1108728 C25.7510839,11.1861298 25.6841891,11.2530247 25.6089321,11.3095764 L20.9377729,14.8197087 C20.4962521,15.1514885 19.8693681,15.0625259 19.5375883,14.6210051 C19.4074156,14.447776 19.3370324,14.2369516 19.3370324,14.0202646 L19.3370324,12.1614559 Z"
                  id="Combined-Shape" fill="#FFFFFF" fill-rule="nonzero"/>
        </g>
    </g>
</svg>