<?xml version="1.0" encoding="UTF-8"?>
<svg width="21px" height="23px" viewBox="0 0 21 23" version="1.1" xmlns="http://www.w3.org/2000/svg" >
    <g stroke="none" stroke-width="1" fill="none" fill-rule="evenodd" transform="translate(-1054.000000, -518.000000)">
        <g transform="translate(1054.000000, 518.000000)">
                <path d="M10.5,21.4666667 C16.2989899,21.4666667 21,16.6611896 21,10.7333333 C21,4.80547702 16.2989899,0 10.5,0 C4.70101013,0 0,4.80547702 0,10.7333333 C0,13.68116 1.16251812,16.3514322 3.04447579,18.2912252 C3.04447579,18.2912252 3.03192976,19.8571139 3.00683769,22.9888915 C5.72736542,21.5877187 7.08762928,20.8871323 7.08762928,20.8871323 C8.15750045,21.2627575 9.30545513,21.4666667 10.5,21.4666667 Z" id="Oval-5" fill="#38BD4C"/>
                <path d="M12,9.73520711 L12,8.16883453 C12,8.06214206 12.0341286,7.95824707 12.0973965,7.87233756 C12.2611473,7.64998581 12.5741452,7.60248031 12.796497,7.76623107 L15.9546664,10.0920622 C15.994853,10.1216576 16.0303821,10.157103 16.0600723,10.1972198 C16.2243471,10.4191846 16.1775802,10.7322937 15.9556153,10.8965686 L12.7974459,13.233911 C12.7113617,13.2976214 12.6070958,13.3320081 12.5,13.3320081 C12.2238576,13.3320081 12,13.1081505 12,12.8320081 L12,11.2685404 L5.76666667,11.2685404 C5.34324836,11.2685404 5,10.9252921 5,10.5018738 C5,10.0784555 5.34324836,9.73520711 5.76666667,9.73520711 L12,9.73520711 Z" id="Combined-Shape" fill="#FFFFFF"/>
        </g>
    </g>
</svg>