<?xml version="1.0" encoding="UTF-8"?>
<svg width="21px" height="21px" viewBox="0 0 21 21" version="1.1" xmlns="http://www.w3.org/2000/svg" >
    <g stroke="none" stroke-width="1" fill="none" fill-rule="evenodd" transform="translate(-1139.000000, -518.000000)">
        <g transform="translate(1139.000000, 518.000000)">
            <path d="M10.5,21 C16.2989899,21 21,16.2989899 21,10.5 C21,4.70101013 16.2989899,0 10.5,0 C4.70101013,0 0,4.70101013 0,10.5 C0,13.3837435 1.16251812,15.9959663 3.04447579,17.8935898 C3.04447579,17.8935898 4.00253432,18.8011337 5.05179591,19.4601671 C6.02092466,20.0688696 7.08762928,20.4330642 7.08762928,20.4330642 C8.15750045,20.8005236 9.30545513,21 10.5,21 Z" id="Oval-5-Copy" fill="#38BD4C"/>
            <path d="M9.5,11.5 L9.5,12.5 L11.75,12.5 C12.1642136,12.5 12.5,12.8357864 12.5,13.25 C12.5,13.6642136 12.1642136,14 11.75,14 L9.5,14 L9.5,14.75 C9.5,15.1642136 9.16421356,15.5 8.75,15.5 C8.33578644,15.5 8,15.1642136 8,14.75 L8,14 L7.25,14 C6.83578644,14 6.5,13.6642136 6.5,13.25 C6.5,12.8357864 6.83578644,12.5 7.25,12.5 L8,12.5 L8,8.25 L8,5.5 L11.5,5.5 C13.1568542,5.5 14.5,6.84314575 14.5,8.5 C14.5,10.1568542 13.1568542,11.5 11.5,11.5 L9.5,11.5 Z M9.5,7 L9.5,10 L11.5,10 C12.3284271,10 13,9.32842712 13,8.5 C13,7.67157288 12.3284271,7 11.5,7 L9.5,7 Z" id="Combined-Shape" fill="#FFFFFF"/>
        </g>
    </g>
</svg>